<svg width="1172" height="1090" viewBox="0 0 1172 1090" fill="none" xmlns="http://www.w3.org/2000/svg">
<g filter="url(#filter0_di)">
<path d="M200.318 576.523C200.318 576.523 163.072 533.402 163.072 451.827C163.072 364.845 301.274 65.4 588.461 65.4C865.733 65.4 1008.93 359.438 1008.93 448.731C1008.93 538.024 973.346 576.501 973.346 576.501" stroke="#8000FF" stroke-width="20" stroke-miterlimit="10"/>
<path d="M514.813 262.712C514.813 262.712 476.441 243.005 475.433 240.171C474.426 237.337 540.058 124.675 540.058 124.675L585.484 168.82L632.95 123.737L696.566 240.171L657.187 264.587L625.895 170.694L587.524 214.839L545.097 169.757L514.813 262.712Z" fill="#8000FF"/>
<path d="M586 283.4C863.834 283.4 937.6 442.649 937.6 457.8C937.6 496.277 914.16 523.2 914.16 523.2C914.16 523.2 785.662 414.2 586 414.2M586 414.2C386.338 414.2 257.84 523.2 257.84 523.2C257.84 523.2 234.4 496.277 234.4 457.8C234.4 442.649 308.166 283.4 586 283.4V414.2Z" stroke="#8000FF" stroke-width="20" stroke-miterlimit="10"/>
<path d="M515.68 523.2C515.68 523.2 487.622 469.441 427.405 469.441C386.901 469.441 351.6 496.866 351.6 496.866" stroke="#8000FF" stroke-width="20" stroke-miterlimit="10" stroke-linecap="round" stroke-linejoin="round"/>
<path d="M457.08 566.8C447.755 566.8 438.812 572.503 432.218 582.654C425.624 592.805 421.92 606.573 421.92 620.929C421.92 635.285 425.624 649.053 432.218 659.205C438.812 669.356 447.755 675.059 457.08 675.059C466.405 675.059 475.348 669.356 481.942 659.205C488.536 649.053 492.24 635.285 492.24 620.929C492.24 606.573 488.536 592.805 481.942 582.654C475.348 572.503 466.405 566.8 457.08 566.8V566.8Z" fill="#8000FF"/>
<path d="M820.4 496.866C820.4 496.866 785.099 469.441 744.595 469.441C684.378 469.441 656.32 523.2 656.32 523.2" stroke="#8000FF" stroke-width="20" stroke-miterlimit="10" stroke-linecap="round" stroke-linejoin="round"/>
<path d="M714.92 566.8C705.595 566.8 696.652 572.503 690.058 582.654C683.464 592.805 679.76 606.573 679.76 620.929C679.76 635.285 683.464 649.053 690.058 659.205C696.652 669.356 705.595 675.059 714.92 675.059C724.245 675.059 733.188 669.356 739.782 659.205C746.376 649.053 750.08 635.285 750.08 620.929C750.08 606.573 746.376 592.805 739.782 582.654C733.188 572.503 724.245 566.8 714.92 566.8V566.8Z" fill="#8000FF"/>
<path d="M257.84 523.2C266.442 542.297 281.28 578.964 281.28 608.394C281.28 637.824 257.207 734.551 257.207 781.203C257.207 920.483 376.657 948.801 423.678 971.648C475.105 996.652 500.725 1024.6 586 1024.6" stroke="#8000FF" stroke-width="20" stroke-miterlimit="10"/>
<path d="M838.331 708.216C817.048 736.208 779.661 753.103 723.944 762.324C711.24 812.42 654.351 850.2 586 850.2C517.602 850.2 460.643 812.333 448.032 762.171C343.536 744.426 334.254 707.606 334.254 707.606C334.254 707.606 318.034 718.898 318.034 769.191C318.034 828.443 369.766 831.452 369.766 831.452C369.766 831.452 375.485 888.851 430.452 888.851C454.197 888.851 468.026 879.782 469.831 878.976C472.925 881.897 497.701 915.6 535.393 915.6C564.693 915.6 585.367 899.337 585.367 899.337C585.367 899.337 608.268 914.728 639.513 914.728C674.955 914.728 702.168 879.564 702.168 879.564C702.168 879.564 716.256 888.742 743.118 888.742C769.98 888.742 796.585 871.433 803.335 830.754C825.182 830.754 853.919 804.638 853.919 770.935C853.919 720.403 838.331 708.216 838.331 708.216Z" fill="#8000FF"/>
<path d="M586 1024.6C671.275 1024.6 696.895 996.631 748.299 971.648C795.343 948.801 914.77 920.483 914.77 781.203C914.77 734.551 890.697 637.824 890.697 608.394C890.697 578.964 905.534 542.297 914.137 523.2M586 632.2C548.7 632.2 512.928 643.684 486.553 664.125C460.177 684.567 445.36 712.291 445.36 741.2C445.36 770.109 460.177 797.833 486.553 818.275C512.928 838.716 548.7 850.2 586 850.2C623.3 850.2 659.072 838.716 685.448 818.275C711.823 797.833 726.64 770.109 726.64 741.2C726.64 712.291 711.823 684.567 685.448 664.125C659.072 643.684 623.3 632.2 586 632.2V632.2ZM261.262 821.642C254.863 823.212 248.112 824.28 241.432 824.28C195.326 824.28 131.241 738.061 131.241 656.856C131.241 603.424 154.095 574.517 177.417 574.517C203.764 574.517 247.245 582.561 279.053 616.984L261.262 821.642Z" stroke="#8000FF" stroke-width="20" stroke-miterlimit="10"/>
<path d="M910.738 821.642C917.137 823.212 923.888 824.28 930.568 824.28C976.675 824.28 1040.76 738.061 1040.76 656.856C1040.76 603.424 1017.91 574.517 994.583 574.517C968.236 574.517 924.755 582.561 892.947 616.984" stroke="#8000FF" stroke-width="20" stroke-miterlimit="10"/>
</g>
<defs>
<filter id="filter0_di" x="-20" y="0" width="1212" height="1130" filterUnits="userSpaceOnUse" color-interpolation-filters="sRGB">
<feFlood flood-opacity="0" result="BackgroundImageFix"/>
<feColorMatrix in="SourceAlpha" type="matrix" values="0 0 0 0 0 0 0 0 0 0 0 0 0 0 0 0 0 0 127 0"/>
<feOffset dy="20"/>
<feGaussianBlur stdDeviation="10"/>
<feColorMatrix type="matrix" values="0 0 0 0 0.98 0 0 0 0 0 0 0 0 0 1 0 0 0 1 0"/>
<feBlend mode="normal" in2="BackgroundImageFix" result="effect1_dropShadow"/>
<feBlend mode="normal" in="SourceGraphic" in2="effect1_dropShadow" result="shape"/>
<feColorMatrix in="SourceAlpha" type="matrix" values="0 0 0 0 0 0 0 0 0 0 0 0 0 0 0 0 0 0 127 0" result="hardAlpha"/>
<feOffset dx="10" dy="30"/>
<feGaussianBlur stdDeviation="15"/>
<feComposite in2="hardAlpha" operator="arithmetic" k2="-1" k3="1"/>
<feColorMatrix type="matrix" values="0 0 0 0 0 0 0 0 0 0.219083 0 0 0 0 0.995833 0 0 0 1 0"/>
<feBlend mode="normal" in2="shape" result="effect2_innerShadow"/>
</filter>
</defs>
</svg>
